<svg width="118" height="52" viewBox="0 0 118 52" fill="none" xmlns="http://www.w3.org/2000/svg">
<path d="M3.49503 36L15.2415 12.7699V12.5728H1.65554V9.09091H19.446V12.691L7.73899 36H3.49503Z" fill="white"/>
<path d="M33.2472 36H26.2045V9.09091H33.9304C36.4093 9.09091 38.5291 9.62524 40.2898 10.6939C42.0592 11.7538 43.4125 13.2779 44.3498 15.2663C45.2958 17.2547 45.7644 19.6461 45.7557 22.4403C45.7469 25.3047 45.2476 27.7486 44.2578 29.772C43.2768 31.7867 41.8533 33.3284 39.9876 34.397C38.1306 35.4657 35.8838 36 33.2472 36ZM27.0455 35.1591H33.2472C35.7348 35.1591 37.8503 34.6554 39.5934 33.6481C41.3365 32.632 42.6592 31.1735 43.5614 29.2727C44.4724 27.3719 44.9235 25.0945 44.9148 22.4403C44.906 19.8213 44.468 17.5788 43.6009 15.7131C42.7424 13.8473 41.4986 12.4195 39.8693 11.4297C38.2401 10.4311 36.2604 9.93182 33.9304 9.93182H27.0455V35.1591ZM50.9518 36H50.0584L59.6763 9.09091H60.8325L70.4504 36H69.557L60.307 10.142H60.2018L50.9518 36ZM54.0001 26.0668H66.5087V26.9077H54.0001V26.0668ZM71.8296 9.09091H72.8808L81.868 22.2827H81.9731L90.9603 9.09091H92.0115L82.341 23.2287V36H81.5001V23.2287L71.8296 9.09091ZM113.53 15.8182C113.398 13.9787 112.693 12.4677 111.414 11.2852C110.144 10.1026 108.467 9.51136 106.382 9.51136C105.016 9.51136 103.794 9.77415 102.716 10.2997C101.639 10.8253 100.789 11.5479 100.167 12.4677C99.5453 13.3787 99.2343 14.4254 99.2343 15.608C99.2343 16.2912 99.3482 16.9219 99.576 17.5C99.8037 18.0781 100.15 18.6081 100.614 19.0898C101.087 19.5629 101.678 19.9921 102.388 20.3775C103.106 20.7541 103.947 21.0914 104.91 21.3892L107.959 22.3352C109.124 22.6944 110.131 23.0973 110.981 23.544C111.83 23.9908 112.531 24.4944 113.083 25.055C113.644 25.6069 114.06 26.2244 114.331 26.9077C114.603 27.5821 114.739 28.3355 114.739 29.1676C114.739 30.5691 114.379 31.8174 113.661 32.9123C112.943 34.0072 111.94 34.8656 110.652 35.4876C109.365 36.1095 107.871 36.4205 106.172 36.4205C104.534 36.4205 103.102 36.1358 101.875 35.5664C100.649 34.9883 99.6767 34.1955 98.9584 33.1882C98.2489 32.1721 97.8504 31.0071 97.7628 29.6932H98.6037C98.6913 30.8494 99.0548 31.8699 99.6942 32.7546C100.334 33.6393 101.201 34.3313 102.296 34.8306C103.399 35.3299 104.691 35.5795 106.172 35.5795C107.714 35.5795 109.062 35.3124 110.219 34.7781C111.384 34.235 112.286 33.4817 112.925 32.5181C113.574 31.5546 113.898 30.4377 113.898 29.1676C113.898 28.2041 113.687 27.3588 113.267 26.6317C112.847 25.896 112.185 25.2478 111.283 24.6871C110.381 24.1265 109.203 23.6229 107.749 23.1761L104.7 22.2301C102.589 21.5644 101.008 20.6841 99.957 19.5891C98.9146 18.4942 98.3934 17.1671 98.3934 15.608C98.3934 14.2853 98.7394 13.1027 99.4314 12.0604C100.123 11.0092 101.069 10.1815 102.27 9.57706C103.478 8.97266 104.849 8.67045 106.382 8.67045C107.924 8.67045 109.277 8.97704 110.442 9.5902C111.607 10.2034 112.531 11.0486 113.214 12.1261C113.898 13.2035 114.283 14.4342 114.371 15.8182H113.53Z" fill="white"/>
<path d="M6.57029 40.2727H7.36716V46.5668C7.36432 47.1349 7.26205 47.6094 7.06034 47.9901C6.85864 48.3679 6.58023 48.6506 6.22512 48.8381C5.87 49.0256 5.46233 49.1193 5.00211 49.1193C4.5504 49.1193 4.14699 49.0355 3.79188 48.8679C3.43676 48.7003 3.15693 48.4645 2.95239 48.1605C2.75068 47.8565 2.64983 47.5 2.64983 47.0909H3.43392C3.43392 47.3494 3.50211 47.5781 3.63847 47.777C3.77483 47.973 3.96091 48.1264 4.19671 48.2372C4.43534 48.348 4.70381 48.4034 5.00211 48.4034C5.31176 48.4034 5.58307 48.3381 5.81603 48.2074C6.05182 48.0767 6.23648 47.8764 6.37 47.6065C6.50353 47.3338 6.57029 46.9872 6.57029 46.5668V40.2727ZM26.3202 44.6364C26.3202 45.5455 26.1582 46.3366 25.8344 47.0099C25.5105 47.6804 25.0645 48.2003 24.4963 48.5696C23.931 48.9361 23.2804 49.1193 22.5446 49.1193C21.8088 49.1193 21.1568 48.9361 20.5886 48.5696C20.0233 48.2003 19.5787 47.6804 19.2548 47.0099C18.9338 46.3366 18.7733 45.5455 18.7733 44.6364C18.7733 43.7273 18.9338 42.9375 19.2548 42.267C19.5787 41.5937 20.0247 41.0739 20.5929 40.7074C21.1611 40.3381 21.8117 40.1534 22.5446 40.1534C23.2804 40.1534 23.931 40.3381 24.4963 40.7074C25.0645 41.0739 25.5105 41.5937 25.8344 42.267C26.1582 42.9375 26.3202 43.7273 26.3202 44.6364ZM25.5446 44.6364C25.5446 43.8551 25.4139 43.1861 25.1526 42.6293C24.8912 42.0696 24.5347 41.642 24.083 41.3466C23.6313 41.0511 23.1185 40.9034 22.5446 40.9034C21.9736 40.9034 21.4622 41.0511 21.0105 41.3466C20.5588 41.642 20.2009 42.0682 19.9367 42.625C19.6753 43.1818 19.5446 43.8523 19.5446 44.6364C19.5446 45.4176 19.6753 46.0866 19.9367 46.6435C20.198 47.2003 20.5545 47.6278 21.0063 47.9261C21.458 48.2216 21.9707 48.3693 22.5446 48.3693C23.1185 48.3693 23.6313 48.2216 24.083 47.9261C24.5375 47.6307 24.8955 47.2045 25.1568 46.6477C25.4182 46.0881 25.5474 45.4176 25.5446 44.6364ZM43.5441 40.2727H44.341V46.0511C44.341 46.6449 44.2018 47.1761 43.9234 47.6449C43.645 48.1108 43.2572 48.4787 42.76 48.7486C42.2657 49.0156 41.6904 49.1491 41.0342 49.1491C40.3808 49.1491 39.8055 49.0142 39.3083 48.7443C38.8112 48.4744 38.4234 48.1065 38.145 47.6406C37.8666 47.1747 37.7274 46.6449 37.7274 46.0511V40.2727H38.5242V45.9957C38.5242 46.4588 38.6279 46.8722 38.8353 47.2358C39.0427 47.5966 39.3339 47.8807 39.7089 48.0881C40.0867 48.2955 40.5285 48.3991 41.0342 48.3991C41.5399 48.3991 41.9816 48.2955 42.3595 48.0881C42.7373 47.8807 43.0285 47.5966 43.2331 47.2358C43.4404 46.8722 43.5441 46.4588 43.5441 45.9957V40.2727ZM56.1371 49V40.2727H58.9538C59.5731 40.2727 60.0902 40.3849 60.505 40.6094C60.9226 40.831 61.2365 41.1392 61.4467 41.5341C61.6598 41.9261 61.7663 42.3764 61.7663 42.8849C61.7663 43.3935 61.6598 43.8423 61.4467 44.2315C61.2365 44.6207 60.924 44.9247 60.5092 45.1435C60.0944 45.3622 59.5802 45.4716 58.9666 45.4716H56.5675V44.7429H58.9453C59.3998 44.7429 59.7777 44.6676 60.0788 44.517C60.3828 44.3665 60.6087 44.152 60.7564 43.8736C60.9069 43.5952 60.9822 43.2656 60.9822 42.8849C60.9822 42.5043 60.9069 42.1719 60.7564 41.8878C60.6058 41.6009 60.3785 41.3793 60.0746 41.223C59.7734 41.0668 59.3927 40.9886 58.9325 40.9886H56.9339V49H56.1371ZM59.9851 45.0625L62.1328 49H61.2123L59.0859 45.0625H59.9851ZM79.9842 40.2727V49H79.2087L74.0524 41.6918H73.9842V49H73.1874V40.2727H73.9587L79.132 47.5895H79.2002V40.2727H79.9842ZM91.7846 49V40.2727H96.8471V40.9886H92.5814V44.2741H96.5786V44.9901H92.5814V48.2841H96.9323V49H91.7846ZM107.571 40.2727H108.492L111.078 44.4148H111.155L113.742 40.2727H114.662L111.513 45.2202V49H110.721V45.2202L107.571 40.2727Z" fill="white"/>
</svg>
